<?xml version="1.0" encoding="UTF-8"?>
<svg width="40" height="40" viewBox="0 0 40 40" fill="none" xmlns="http://www.w3.org/2000/svg">
  <rect width="40" height="40" rx="8" fill="#3F4E4F"/>
  <path d="M28 15.5C28 19.6421 24.6421 23 20.5 23C16.3579 23 13 19.6421 13 15.5C13 11.3579 16.3579 8 20.5 8C24.6421 8 28 11.3579 28 15.5Z" fill="#DCD7C9"/>
  <path d="M20.5 23C24.6421 23 28 19.6421 28 15.5C28 11.3579 24.6421 8 20.5 8C16.3579 8 13 11.3579 13 15.5C13 19.6421 16.3579 23 20.5 23Z" stroke="#2C3639" stroke-width="2"/>
  <path d="M20.5 23V32" stroke="#2C3639" stroke-width="2" stroke-linecap="round"/>
  <path d="M15 32H26" stroke="#2C3639" stroke-width="2" stroke-linecap="round"/>
  <path d="M20.5 18C22.433 18 24 16.433 24 14.5C24 12.567 22.433 11 20.5 11C18.567 11 17 12.567 17 14.5C17 16.433 18.567 18 20.5 18Z" fill="#A27B5C"/>
</svg>
